HIERARCHY
ROOT Hips
{
	OFFSET -0.001795 -0.223333 0.028219
	CHANNELS 6 Xposition Yposition Zposition Zrotation Yrotation Xrotation 
	JOINT LeftUpLeg
	{
		OFFSET 0.069520 -0.091406 -0.006815
		CHANNELS 3 Zrotation Yrotation Xrotation
		JOINT LeftLeg
		{
			OFFSET 0.034277 -0.375199 -0.004496
			CHANNELS 3 Zrotation Yrotation Xrotation
			JOINT LeftFoot
			{
				OFFSET -0.013596 -0.397961 -0.043693
				CHANNELS 3 Zrotation Yrotation Xrotation
				JOINT LeftToe
				{
					OFFSET 0.026358 -0.055791 0.119288
					CHANNELS 3 Zrotation Yrotation Xrotation
					End Site
					{
						OFFSET 0.000000 0.000000 0.000000
					}
				}
			}
		}
	}
	JOINT RightUpLeg
	{
		OFFSET -0.067670 -0.090522 -0.004320
		CHANNELS 3 Zrotation Yrotation Xrotation
		JOINT RightLeg
		{
			OFFSET -0.038290 -0.382569 -0.008850
			CHANNELS 3 Zrotation Yrotation Xrotation
			JOINT RightFoot
			{
				OFFSET 0.015774 -0.398415 -0.042312
				CHANNELS 3 Zrotation Yrotation Xrotation
				JOINT RightToe
				{
					OFFSET -0.025372 -0.048144 0.123348
					CHANNELS 3 Zrotation Yrotation Xrotation
					End Site
					{
						OFFSET 0.000000 0.000000 0.000000
					}
				}
			}
		}
	}
	JOINT Spine
	{
		OFFSET -0.002533 0.108963 -0.026696
		CHANNELS 3 Zrotation Yrotation Xrotation
		JOINT Spine1
		{
			OFFSET 0.005487 0.135180 0.001092
			CHANNELS 3 Zrotation Yrotation Xrotation
			JOINT Spine2
			{
				OFFSET 0.001457 0.052922 0.025425
				CHANNELS 3 Zrotation Yrotation Xrotation
				JOINT Neck
				{
					OFFSET -0.002778 0.213870 -0.042857
					CHANNELS 3 Zrotation Yrotation Xrotation
					JOINT Head
					{
						OFFSET 0.005152 0.064970 0.051349
						CHANNELS 3 Zrotation Yrotation Xrotation
						End Site
						{
							OFFSET 0.000000 0.000000 0.000000
						}
					}
				}
				JOINT LeftShoulder
				{
					OFFSET 0.078845 0.121749 -0.034090
					CHANNELS 3 Zrotation Yrotation Xrotation
					JOINT LeftArm
					{
						OFFSET 0.090977 0.030469 -0.008868
						CHANNELS 3 Zrotation Yrotation Xrotation
						JOINT LeftForeArm
						{
							OFFSET 0.259612 -0.012772 -0.027456
							CHANNELS 3 Zrotation Yrotation Xrotation
							JOINT LeftHand
							{
								OFFSET 0.249234 0.008986 -0.001171
								CHANNELS 3 Zrotation Yrotation Xrotation
								End Site
								{
									OFFSET 0.000000 0.000000 0.000000
								}
							}
						}
					}
				}
				JOINT RightShoulder
				{
					OFFSET -0.081759 0.118833 -0.038615
					CHANNELS 3 Zrotation Yrotation Xrotation
					JOINT RightArm
					{
						OFFSET -0.096012 0.032551 -0.009143
						CHANNELS 3 Zrotation Yrotation Xrotation
						JOINT RightForeArm
						{
							OFFSET -0.253742 -0.013329 -0.021401
							CHANNELS 3 Zrotation Yrotation Xrotation
							JOINT RightHand
							{
								OFFSET -0.255298 0.007772 -0.005559
								CHANNELS 3 Zrotation Yrotation Xrotation
								End Site
								{
									OFFSET 0.000000 0.000000 0.000000
								}
							}
						}
					}
				}
			}
		}
	}
}
MOTION
Frames: 15
Frame Time: 0.050000
0.000000 0.946148 0.000000 0.831041 6.422852 4.237350 6.731810 -1.007617 -18.769445 -4.896034 0.357482 19.077306 3.410281 11.610696 15.321097 0.000000 0.000000 0.000000 -1.042729 0.935382 -10.402598 1.310517 0.040696 11.350255 -4.351013 -11.903715 7.046461 0.000000 0.000000 0.000000 3.963607 -0.919379 10.216951 1.249061 -0.636955 0.524953 0.913032 -1.787668 3.147048 0.492341 0.943120 -15.969830 0.000000 0.000000 0.000000 -15.729936 -20.810963 8.856029 -64.195906 -28.227464 8.647172 -26.529495 -46.507309 13.394373 0.000000 0.000000 0.000000 13.766906 18.383085 8.057656 52.913003 22.684910 5.008289 -1.315519 21.814105 0.517509 0.000000 0.000000 0.000000 
0.002374 0.945215 0.006049 0.525572 8.144542 5.438838 6.802210 -1.231000 -21.273876 -3.285125 0.055461 12.999276 4.491675 15.985383 32.297047 0.000000 0.000000 0.000000 -1.358205 0.914547 -10.534920 2.487030 -0.257956 10.191611 -5.037494 -13.241037 7.217655 0.000000 0.000000 0.000000 4.326673 -1.000949 10.226519 1.318908 -0.546497 -1.352121 1.782890 -2.234073 4.714332 -0.736529 1.989332 -21.008887 0.000000 0.000000 0.000000 -18.491277 -19.264806 8.303382 -60.602426 -27.305890 7.290038 -32.565338 -51.092885 18.036010 0.000000 0.000000 0.000000 11.962844 18.564450 8.060470 53.369535 24.276160 5.668125 -0.128540 22.387201 0.764949 0.000000 0.000000 0.000000 
0.006689 0.944435 0.014172 1.022812 8.501849 4.446325 6.160707 -1.391740 -22.170723 -1.578055 -0.041247 6.418555 5.706857 17.886395 39.378836 0.000000 0.000000 0.000000 -1.704971 0.704851 -8.153686 1.900591 -0.141474 9.190703 -5.179931 -13.500771 6.573146 0.000000 0.000000 0.000000 4.157870 -1.069485 11.344304 0.163744 -0.016392 -1.349415 2.313211 -1.520313 4.883846 0.477595 1.198829 -17.975894 0.000000 0.000000 0.000000 -18.590967 -18.743214 7.788378 -61.761831 -26.803012 7.170672 -27.024067 -48.369842 14.155450 0.000000 0.000000 0.000000 13.593643 18.150519 8.218727 50.355445 26.406329 6.056224 -1.159760 19.826854 0.518810 0.000000 0.000000 0.000000 
0.013390 0.942647 0.024663 1.144761 9.701712 4.454096 4.867039 -1.727496 -23.135419 -0.449469 -0.078086 3.213041 2.302466 13.334489 28.002931 0.000000 0.000000 0.000000 -2.430480 0.596636 -7.336056 2.606225 -0.315665 9.370025 -5.680582 -14.510434 6.178911 0.000000 0.000000 0.000000 3.163077 -0.897792 10.722109 0.191315 -0.169161 0.863334 2.731341 -0.833920 3.826728 1.332469 0.894906 -18.738933 0.000000 0.000000 0.000000 -17.275602 -19.637730 7.828404 -61.802004 -27.164876 7.471870 -23.973867 -48.193629 12.413623 0.000000 0.000000 0.000000 11.679684 18.277205 8.207096 49.748734 28.049188 6.821737 -0.105176 20.926875 0.732340 0.000000 0.000000 0.000000 
0.022903 0.940204 0.037680 0.545118 10.603289 4.124612 4.364854 -1.859752 -23.255220 0.446349 -0.176143 3.018336 1.535470 11.003989 20.708261 0.000000 0.000000 0.000000 -2.579645 0.480501 -5.877335 3.438664 -0.517735 9.399794 -5.909685 -15.001445 5.294873 0.000000 0.000000 0.000000 3.498553 -0.968590 10.966689 0.164876 -0.109884 0.135141 3.049772 -0.876340 4.913689 1.688164 0.750199 -18.938791 0.000000 0.000000 0.000000 -16.119255 -19.565667 7.625830 -61.978179 -25.661048 6.462123 -18.700914 -47.459251 9.813252 0.000000 0.000000 0.000000 11.433714 18.456806 8.366193 49.849708 29.324048 7.306041 -1.776670 21.639542 0.495368 0.000000 0.000000 0.000000 
0.035126 0.937829 0.053400 0.423835 10.605995 4.802417 3.800319 -1.997835 -23.693368 0.842428 -0.268722 3.899804 4.555666 14.758925 19.706886 0.000000 0.000000 0.000000 -3.305927 0.463463 -6.029356 3.645816 -0.579918 10.228512 -5.795130 -14.746777 5.295862 0.000000 0.000000 0.000000 3.334591 -0.882629 10.154060 -0.156584 0.039872 0.106265 3.528756 -0.187368 4.654296 1.219846 1.054269 -18.612435 0.000000 0.000000 0.000000 -16.530117 -19.113036 7.263668 -60.074547 -23.170893 4.871997 -15.557949 -46.478787 8.106102 0.000000 0.000000 0.000000 11.519996 19.248208 8.887666 49.307675 29.867834 7.456647 -2.112274 22.999131 0.485856 0.000000 0.000000 0.000000 
0.049818 0.935497 0.071096 0.132563 10.007342 4.870890 3.153816 -2.082540 -23.762824 1.297093 -0.462640 6.200963 9.709813 21.221469 20.132747 0.000000 0.000000 0.000000 -3.731165 0.393275 -5.088371 3.391004 -0.514642 10.656122 -5.467418 -14.055103 4.854205 0.000000 0.000000 0.000000 3.104288 -0.771669 9.215575 -0.597278 0.255290 -0.007367 3.935938 0.129103 4.739655 1.565377 0.820469 -18.251778 0.000000 0.000000 0.000000 -16.293164 -18.332977 6.850320 -59.104293 -21.416804 3.818288 -12.414948 -45.620625 6.606666 0.000000 0.000000 0.000000 11.805210 19.945965 9.276527 48.762388 30.296976 7.506883 -1.527175 24.631934 0.645139 0.000000 0.000000 0.000000 
0.067083 0.934605 0.090114 0.100743 9.399051 4.902872 2.392715 -2.216923 -24.069013 1.114483 -0.628375 9.303194 14.498673 26.879682 19.927533 0.000000 0.000000 0.000000 -4.600855 0.336766 -4.546970 3.018055 -0.427027 11.547977 -5.253396 -13.642375 6.270372 0.000000 0.000000 0.000000 2.404708 -0.630059 8.424926 -0.912464 0.382076 0.411282 4.038540 0.563134 4.042431 1.505853 0.674186 -16.207254 0.000000 0.000000 0.000000 -15.742973 -17.130062 6.160243 -57.871247 -19.717289 2.905280 -11.770424 -45.268081 6.214244 0.000000 0.000000 0.000000 12.104472 20.087928 9.401927 49.264377 30.297385 7.680307 0.045716 26.874901 1.070269 0.000000 0.000000 0.000000 
0.086310 0.934417 0.109559 -0.328552 8.372835 4.717380 1.413381 -2.255147 -23.359624 1.811371 -0.878113 11.162213 15.542382 28.180401 18.107729 0.000000 0.000000 0.000000 -5.126831 0.311868 -4.196431 2.799499 -0.363155 12.903847 -5.314793 -13.915865 8.422659 0.000000 0.000000 0.000000 1.836454 -0.534887 7.955958 -1.306592 0.607724 -0.342104 4.519715 1.376752 4.626062 1.596901 0.640884 -16.151536 0.000000 0.000000 0.000000 -14.787511 -16.173860 5.600859 -56.621535 -19.641406 2.696957 -13.964402 -45.468677 7.128899 0.000000 0.000000 0.000000 12.154968 19.923728 9.392388 49.249273 30.081195 7.524279 2.736467 29.800304 1.913185 0.000000 0.000000 0.000000 
0.106740 0.935550 0.128420 -0.431425 8.048426 4.475611 0.090714 -2.331160 -22.278257 2.138777 -1.031359 12.345808 16.119623 29.007002 16.378017 0.000000 0.000000 0.000000 -6.219943 0.293784 -4.493422 3.026119 -0.458307 15.945429 -5.429330 -14.280938 11.057782 0.000000 0.000000 0.000000 1.184041 -0.466980 7.897171 -1.343494 0.633776 -0.497058 4.550467 1.692442 4.180578 1.789165 0.431556 -15.071192 0.000000 0.000000 0.000000 -13.616903 -15.654368 5.280558 -56.054168 -19.250230 2.486654 -17.891185 -48.133320 9.276468 0.000000 0.000000 0.000000 11.825127 19.968989 9.368102 49.376579 29.170713 7.203642 6.517421 33.898429 3.357262 0.000000 0.000000 0.000000 
0.126790 0.937834 0.145724 -0.878320 7.745911 4.109349 -0.491962 -2.236487 -20.882469 1.826237 -1.004336 12.896585 16.599552 29.716920 14.949563 0.000000 0.000000 0.000000 -7.344984 0.324932 -6.738252 3.954882 -0.882592 21.790127 -5.677923 -14.890367 13.726716 0.000000 0.000000 0.000000 0.887837 -0.444217 8.001467 -1.517028 0.706308 -0.238548 4.480814 2.178437 3.801845 2.515423 -0.011457 -14.775290 0.000000 0.000000 0.000000 -11.990196 -15.669776 5.196888 -55.000100 -19.879470 2.717960 -25.808915 -50.724066 13.542807 0.000000 0.000000 0.000000 11.966396 19.742366 9.335226 47.994514 27.914857 6.391878 12.552576 38.677148 6.047046 0.000000 0.000000 0.000000 
0.144891 0.940785 0.160998 -1.592858 7.674483 3.302512 -0.735799 -2.104456 -19.575681 1.565556 -1.034997 14.049683 16.871831 30.142989 13.903597 0.000000 0.000000 0.000000 -8.393489 0.287197 -8.487062 4.542679 -1.327586 27.411309 -4.757265 -13.381516 15.338241 0.000000 0.000000 0.000000 0.123628 -0.412078 8.676082 -0.772612 0.392280 -0.854460 4.712616 1.780716 4.624523 1.501520 0.607814 -15.116328 0.000000 0.000000 0.000000 -10.908202 -14.899605 4.928800 -52.998930 -19.925301 2.490642 -36.557324 -54.484302 20.596277 0.000000 0.000000 0.000000 11.009996 19.362899 8.895748 47.178803 26.537780 5.615942 20.522877 43.975799 10.297940 0.000000 0.000000 0.000000 
0.160178 0.944310 0.174900 -2.573476 7.486846 2.769830 -0.864824 -1.947427 -18.225224 1.994372 -1.153223 14.354139 17.062605 30.411503 13.387007 0.000000 0.000000 0.000000 -8.484632 0.319879 -11.622090 4.947502 -1.781217 32.910526 -4.925054 -13.760811 15.781890 0.000000 0.000000 0.000000 -0.606818 -0.353620 8.827343 0.035587 0.007750 -0.645281 4.975919 1.550579 4.250321 1.451766 0.589164 -14.960596 0.000000 0.000000 0.000000 -9.372008 -14.836495 4.945072 -51.202831 -18.710353 1.851741 -50.642511 -57.913834 30.741559 0.000000 0.000000 0.000000 9.631895 18.502959 8.174617 46.797229 23.711193 4.467349 33.988158 48.992924 18.157750 0.000000 0.000000 0.000000 
0.172750 0.947329 0.187994 -3.463259 7.599123 2.468616 -0.713638 -1.771823 -16.950979 2.096926 -1.164430 14.159393 17.044824 30.432197 12.760596 0.000000 0.000000 0.000000 -8.644925 0.312906 -13.870168 5.521164 -2.208917 35.162918 -4.834463 -13.410559 13.376859 0.000000 0.000000 0.000000 -1.427917 -0.282814 8.825192 1.168045 -0.486848 -1.191783 5.189371 0.984182 5.186655 1.067053 0.872865 -15.963188 0.000000 0.000000 0.000000 -8.006816 -13.607926 4.501449 -49.642397 -17.577298 1.170523 -63.597290 -59.004864 40.324820 0.000000 0.000000 0.000000 7.906661 17.648529 7.455294 45.913384 20.327419 2.982951 49.463706 50.461835 27.040959 0.000000 0.000000 0.000000 
0.182897 0.950219 0.199742 -4.290765 7.942124 2.337257 -0.336007 -1.585667 -15.722470 1.994908 -1.095203 13.478629 16.836866 30.200841 12.121221 0.000000 0.000000 0.000000 -7.839944 0.413262 -15.259021 4.415112 -1.719675 34.564118 -4.100010 -11.713290 10.643350 0.000000 0.000000 0.000000 -1.502954 -0.275488 8.697051 1.197628 -0.505195 -1.109849 5.461339 0.132068 5.349268 0.679557 1.013436 -15.713067 0.000000 0.000000 0.000000 -7.278653 -12.503870 4.141144 -48.603465 -15.786122 0.368709 -76.049564 -56.852270 47.844008 0.000000 0.000000 0.000000 6.579630 16.345707 6.612171 45.961526 16.736213 1.625628 63.138251 49.564397 34.252073 0.000000 0.000000 0.000000 
